<?xml version="1.0" encoding="UTF-8"?>
<svg id="_レイヤー_2" data-name="レイヤー 2" xmlns="http://www.w3.org/2000/svg" viewBox="0 0 45 45">
  <defs>
    <style>
      .cls-1 {
        fill: #fff;
      }
    </style>
  </defs>
  <g id="Layer_1" data-name="Layer 1">
    <path class="cls-1" d="m13.18.16c-2.39.11-4.03.5-5.46,1.06-1.48.58-2.73,1.35-3.98,2.6-1.25,1.25-2.02,2.51-2.59,3.99-.55,1.43-.93,3.07-1.04,5.46C.02,15.67,0,16.43,0,22.54c.01,6.11.04,6.88.15,9.28.11,2.39.5,4.03,1.06,5.46.58,1.48,1.35,2.73,2.6,3.98,1.25,1.25,2.51,2.01,3.99,2.59,1.43.55,3.07.93,5.46,1.04,2.4.11,3.17.13,9.27.12,6.11-.01,6.88-.04,9.28-.15,2.39-.11,4.03-.5,5.46-1.06,1.48-.58,2.73-1.35,3.98-2.6,1.25-1.25,2.01-2.51,2.59-3.99.55-1.43.93-3.07,1.04-5.46.1-2.4.13-3.17.12-9.28-.01-6.11-.04-6.88-.15-9.27-.11-2.4-.5-4.03-1.06-5.46-.58-1.48-1.35-2.73-2.6-3.98-1.25-1.25-2.51-2.02-3.99-2.59-1.43-.55-3.07-.93-5.46-1.04C29.33.01,28.57,0,22.46,0c-6.11.01-6.88.04-9.28.15m.26,40.67c-2.19-.1-3.38-.46-4.18-.77-1.05-.41-1.8-.89-2.59-1.68-.79-.79-1.28-1.53-1.69-2.58-.31-.79-.68-1.98-.78-4.18-.11-2.37-.14-3.08-.15-9.09-.01-6.01.01-6.72.11-9.09.09-2.19.46-3.38.77-4.18.41-1.05.89-1.8,1.68-2.59.79-.79,1.53-1.28,2.58-1.69.79-.31,1.98-.68,4.18-.78,2.37-.11,3.08-.14,9.09-.15,6.01-.01,6.72,0,9.09.11,2.19.1,3.38.46,4.18.77,1.05.41,1.8.89,2.59,1.68.79.79,1.28,1.53,1.69,2.59.31.79.68,1.98.78,4.17.11,2.37.14,3.08.15,9.09.01,6.01-.01,6.72-.11,9.09-.1,2.19-.46,3.39-.77,4.18-.41,1.05-.89,1.8-1.68,2.59-.79.79-1.53,1.28-2.58,1.69-.79.31-1.98.68-4.17.78-2.37.11-3.08.14-9.09.15-6.01.01-6.72-.01-9.09-.11M31.79,10.47c0,1.49,1.21,2.7,2.7,2.69,1.49,0,2.7-1.21,2.7-2.7,0-1.49-1.21-2.7-2.71-2.69-1.49,0-2.7,1.21-2.69,2.7m-20.84,12.05c.01,6.38,5.19,11.54,11.57,11.53,6.38-.01,11.54-5.19,11.53-11.57-.01-6.38-5.2-11.54-11.58-11.53-6.38.01-11.54,5.2-11.53,11.58m4.05,0c0-4.14,3.34-7.51,7.49-7.51,4.14,0,7.51,3.34,7.51,7.48,0,4.14-3.34,7.51-7.49,7.51-4.14,0-7.51-3.34-7.51-7.49"/>
  </g>
</svg>